<svg width="11" height="11" viewBox="0 0 11 11" fill="none" xmlns="http://www.w3.org/2000/svg">
<g clip-path="url(#clip0_20_57)">
<path d="M5.91766 0.770538C3.92068 0.770538 2.29604 2.39519 2.29604 4.39214C2.29604 6.87042 5.53703 10.5087 5.67502 10.6624C5.80463 10.8067 6.03092 10.8065 6.16029 10.6624C6.29828 10.5087 9.53928 6.87042 9.53928 4.39214C9.53924 2.39519 7.91461 0.770538 5.91766 0.770538ZM5.91766 9.94493C4.8269 8.64927 2.94822 6.09304 2.94822 4.39218C2.94822 2.7548 4.28029 1.42273 5.91766 1.42273C7.55502 1.42273 8.88709 2.7548 8.88709 4.39216C8.88707 6.0931 7.00869 8.64886 5.91766 9.94493Z" fill="#56CCF2"/>
<path d="M5.91764 2.57003C4.91291 2.57003 4.09554 3.38743 4.09554 4.39216C4.09554 5.39689 4.91293 6.21429 5.91764 6.21429C6.92234 6.21429 7.73972 5.39689 7.73972 4.39216C7.73972 3.38743 6.92234 2.57003 5.91764 2.57003ZM5.91764 5.5621C5.27252 5.5621 4.74772 5.03728 4.74772 4.39216C4.74772 3.74704 5.27254 3.22222 5.91764 3.22222C6.56273 3.22222 7.08755 3.74704 7.08755 4.39216C7.08755 5.03728 6.56273 5.5621 5.91764 5.5621Z" fill="#56CCF2"/>
</g>
<defs>
<clipPath id="clip0_20_57">
<rect width="10" height="10" fill="white" transform="translate(0.917664 0.770538)"/>
</clipPath>
</defs>
</svg>
